<?xml version="1.0" encoding="UTF-8" standalone="no"?>
<svg
   xmlns:dc="http://purl.org/dc/elements/1.1/"
   xmlns:cc="http://creativecommons.org/ns#"
   xmlns:rdf="http://www.w3.org/1999/02/22-rdf-syntax-ns#"
   xmlns:svg="http://www.w3.org/2000/svg"
   xmlns="http://www.w3.org/2000/svg"
   xmlns:sodipodi="http://sodipodi.sourceforge.net/DTD/sodipodi-0.dtd"
   xmlns:inkscape="http://www.inkscape.org/namespaces/inkscape"
   id="svg2"
   version="1.1"
   inkscape:version="0.91 r13725"
   sodipodi:docname="BlobD.svg"
   width="102"
   height="102">
  <metadata
     id="metadata774">
    <rdf:RDF>
      <cc:Work
         rdf:about="">
        <dc:format>image/svg+xml</dc:format>
        <dc:type
           rdf:resource="http://purl.org/dc/dcmitype/StillImage" />
        <dc:title></dc:title>
      </cc:Work>
    </rdf:RDF>
  </metadata>
  <sodipodi:namedview
     pagecolor="#ffffff"
     bordercolor="#666666"
     borderopacity="1"
     objecttolerance="10"
     gridtolerance="10"
     guidetolerance="10"
     inkscape:pageopacity="0"
     inkscape:pageshadow="2"
     inkscape:window-width="1280"
     inkscape:window-height="725"
     id="namedview772"
     showgrid="false"
     inkscape:zoom="0.59"
     inkscape:cx="-16.201623"
     inkscape:cy="23.147761"
     inkscape:window-x="199"
     inkscape:window-y="58"
     inkscape:window-maximized="0"
     inkscape:current-layer="g6"
     fit-margin-top="0"
     fit-margin-left="0"
     fit-margin-right="0"
     fit-margin-bottom="0" />
  <defs
     id="defs4" />
  <g
     id="g6"
     transform="translate(-522.25,-19.5)">
    <path
       d="m 603.55,20.5 q 6.9,0 11.3,2.4 8.4,4.5 8.4,17.3 l 0,61.4 q -0.2,12.2 -8.4,16.6 -4.4,2.3 -11.3,2.3 l -60.6,0 q -19.3,0 -19.7,-18.9 l 0,-61.4 q 0,-19.7 19.7,-19.7 l 60.6,0"
       id="path100"
       style="fill:#1f79be;fill-opacity:1;stroke:#000000;stroke-width:2;stroke-opacity:1"
       inkscape:connector-curvature="0" />
    <path
       d="m 545.95,57.3 0.1,-0.1 q 0.8,-0.8 2,-0.7 1.1,-0.1 1.8,0.7 l 3.8,3.8 3.7,-3.7 q 0.8,-0.8 1.9,-0.8 1.1,0 1.9,0.8 l 0.1,0.1 q 0.7,0.7 0.7,1.9 l -0.7,1.9 -3.7,3.7 3.6,3.6 q 0.8,0.7 0.8,1.9 0,1.1 -0.8,1.9 l -0.1,0.1 -1.9,0.7 q -1.1,0 -1.9,-0.7 l -3.6,-3.6 -3.6,3.7 q -0.8,0.7 -2,0.7 -1.2,0 -1.9,-0.7 l -0.1,-0.1 q -0.8,-0.8 -0.7,-2 0,-1.1 0.8,-1.8 l 3.6,-3.7 -3.8,-3.8 q -0.7,-0.8 -0.7,-1.9 0,-1.1 0.7,-1.9 m 40,3.8 q -0.7,-0.8 -0.7,-1.9 0,-1.1 0.7,-1.9 l 0.1,-0.1 q 0.8,-0.8 2,-0.7 1.1,-0.1 1.8,0.7 l 3.8,3.8 3.7,-3.7 q 0.8,-0.8 1.9,-0.8 1.1,0 1.9,0.8 l 0.1,0.1 q 0.7,0.7 0.7,1.9 l -0.7,1.9 -3.7,3.7 3.6,3.6 q 0.8,0.7 0.8,1.9 0,1.1 -0.8,1.9 l -0.1,0.1 -1.9,0.7 q -1.1,0 -1.9,-0.7 l -3.6,-3.6 -3.6,3.7 q -0.8,0.7 -2,0.7 -1.2,0 -1.9,-0.7 l -0.1,-0.1 q -0.8,-0.8 -0.7,-2 0,-1.1 0.8,-1.8 l 3.6,-3.7 -3.8,-3.8"
       id="path104"
       style="fill:#ffffff;fill-opacity:1;stroke:#000000;stroke-width:2;stroke-opacity:1"
       inkscape:connector-curvature="0" />
    <path
       style="color:#000000;font-style:normal;font-variant:normal;font-weight:normal;font-stretch:normal;font-size:medium;line-height:normal;font-family:sans-serif;text-indent:0;text-align:start;text-decoration:none;text-decoration-line:none;text-decoration-style:solid;text-decoration-color:#000000;letter-spacing:normal;word-spacing:normal;text-transform:none;direction:ltr;block-progression:tb;writing-mode:lr-tb;baseline-shift:baseline;text-anchor:start;white-space:normal;clip-rule:nonzero;display:inline;overflow:visible;visibility:visible;opacity:1;isolation:auto;mix-blend-mode:normal;color-interpolation:sRGB;color-interpolation-filters:linearRGB;solid-color:#000000;solid-opacity:1;fill:#2c6088;fill-opacity:1;fill-rule:nonzero;stroke:#000000;stroke-width:2;stroke-linecap:round;stroke-linejoin:round;stroke-miterlimit:4;stroke-dasharray:none;stroke-dashoffset:0;stroke-opacity:1;color-rendering:auto;image-rendering:auto;shape-rendering:auto;text-rendering:auto;enable-background:accumulate"
       d="m 573.25,79.20312 c -13.18414,0 -24.07422,10.49232 -24.07422,23.47656 a 4.0004,4.0004 0 1 0 8,0 c 0,-8.52768 7.08454,-15.47656 16.07422,-15.47656 8.9897,0 16.07422,6.94888 16.07422,15.47656 a 4.0004,4.0004 0 1 0 8,0 c 0,-12.98424 -10.89006,-23.47656 -24.07422,-23.47656 z"
       id="path4906"
       inkscape:connector-curvature="0" />
  </g>
</svg>
