<?xml version="1.0" encoding="UTF-8" standalone="no"?>
<svg
   xmlns:dc="http://purl.org/dc/elements/1.1/"
   xmlns:cc="http://creativecommons.org/ns#"
   xmlns:rdf="http://www.w3.org/1999/02/22-rdf-syntax-ns#"
   xmlns:svg="http://www.w3.org/2000/svg"
   xmlns="http://www.w3.org/2000/svg"
   xmlns:sodipodi="http://sodipodi.sourceforge.net/DTD/sodipodi-0.dtd"
   xmlns:inkscape="http://www.inkscape.org/namespaces/inkscape"
   id="svg2"
   version="1.1"
   inkscape:version="0.91 r13725"
   sodipodi:docname="BlobA.svg"
   width="102"
   height="102">
  <metadata
     id="metadata774">
    <rdf:RDF>
      <cc:Work
         rdf:about="">
        <dc:format>image/svg+xml</dc:format>
        <dc:type
           rdf:resource="http://purl.org/dc/dcmitype/StillImage" />
        <dc:title></dc:title>
      </cc:Work>
    </rdf:RDF>
  </metadata>
  <sodipodi:namedview
     pagecolor="#ffffff"
     bordercolor="#666666"
     borderopacity="1"
     objecttolerance="10"
     gridtolerance="10"
     guidetolerance="10"
     inkscape:pageopacity="0"
     inkscape:pageshadow="2"
     inkscape:window-width="1280"
     inkscape:window-height="725"
     id="namedview772"
     showgrid="false"
     inkscape:zoom="1.18"
     inkscape:cx="-65.015179"
     inkscape:cy="23.147761"
     inkscape:window-x="298"
     inkscape:window-y="219"
     inkscape:window-maximized="0"
     inkscape:current-layer="g6"
     fit-margin-top="0"
     fit-margin-left="0"
     fit-margin-right="0"
     fit-margin-bottom="0" />
  <defs
     id="defs4" />
  <g
     id="g6"
     transform="translate(-592.25,-19.5)">
    <path
       d="m 684.85,22.9 q 8.4,4.5 8.4,17.3 l 0,61.4 q -0.2,12.2 -8.4,16.6 -4.4,2.3 -11.3,2.3 l -60.6,0 q -19.3,0 -19.7,-18.9 l 0,-61.4 q 0,-19.7 19.7,-19.7 l 60.6,0 q 6.9,0 11.3,2.4"
       id="path108"
       inkscape:connector-curvature="0"
       style="fill:#ffffff;stroke:none" />
    <path
       style="fill:#1f79be;fill-opacity:1;stroke:#000000;stroke-width:2;stroke-opacity:1"
       id="path4910"
       d="m 593.25,40.2 q 0,-19.7 19.7,-19.7 l 60.6,0 q 6.9,0 11.3,2.4 8.4,4.5 8.4,17.3 l 0,61.4 q -0.2,12.2 -8.4,16.6 -4.4,2.3 -11.3,2.3 l -60.6,0 q -19.3,0 -19.7,-18.9 l 0,-61.4"
       inkscape:connector-curvature="0" />
    <path
       style="fill:#ffffff;fill-opacity:1;stroke:#000000;stroke-width:2;stroke-opacity:1"
       id="path4912"
       d="m 662.45,57.3 q 3,0 5.1,2.1 2.2,2.2 2.2,5.2 0,2.9 -2.2,5.1 -2.1,2.1 -5.1,2.1 -3,0 -5.1,-2.1 -2.2,-2.2 -2.2,-5.1 0,-3 2.2,-5.2 2.1,-2.1 5.1,-2.1 m -32.7,7.3 q 0,2.9 -2.2,5.1 -2.1,2.1 -5.1,2.1 -3,0 -5.1,-2.1 -2.2,-2.2 -2.2,-5.1 0,-3 2.2,-5.2 2.1,-2.1 5.1,-2.1 3,0 5.1,2.1 2.2,2.2 2.2,5.2"
       inkscape:connector-curvature="0" />
    <path
       style="color:#000000;font-style:normal;font-variant:normal;font-weight:normal;font-stretch:normal;font-size:medium;line-height:normal;font-family:sans-serif;text-indent:0;text-align:start;text-decoration:none;text-decoration-line:none;text-decoration-style:solid;text-decoration-color:#000000;letter-spacing:normal;word-spacing:normal;text-transform:none;direction:ltr;block-progression:tb;writing-mode:lr-tb;baseline-shift:baseline;text-anchor:start;white-space:normal;clip-rule:nonzero;display:inline;overflow:visible;visibility:visible;opacity:1;isolation:auto;mix-blend-mode:normal;color-interpolation:sRGB;color-interpolation-filters:linearRGB;solid-color:#000000;solid-opacity:1;fill:#2c6088;fill-opacity:1;fill-rule:nonzero;stroke:#000000;stroke-width:2;stroke-linecap:round;stroke-linejoin:round;stroke-miterlimit:4;stroke-dasharray:none;stroke-dashoffset:0;stroke-opacity:1;color-rendering:auto;image-rendering:auto;shape-rendering:auto;text-rendering:auto;enable-background:accumulate"
       d="m 643.25,101.36328 c 6.44082,0 12.32938,-1.56466 16.88672,-4.3789 4.55734,-2.81424 8.01952,-7.21576 8.01952,-12.53126 a 4.0003998,4.0003998 0 1 0 -8,0 c 0,1.81478 -1.21308,3.86812 -4.22264,5.72656 -3.00954,1.85846 -7.57772,3.1836 -12.68358,3.1836 -5.10588,0 -9.67014,-1.32514 -12.6797,-3.1836 -3.00954,-1.85844 -4.22656,-3.91178 -4.22656,-5.72656 a 4.0003998,4.0003998 0 1 0 -8,0 c 0,5.3155 3.4661,9.71702 8.02344,12.53126 4.55734,2.81424 10.44202,4.3789 16.88282,4.3789 z"
       id="path4918"
       inkscape:connector-curvature="0" />
  </g>
</svg>
