<?xml version="1.0" encoding="UTF-8" standalone="no"?>
<svg
   xmlns:dc="http://purl.org/dc/elements/1.1/"
   xmlns:cc="http://creativecommons.org/ns#"
   xmlns:rdf="http://www.w3.org/1999/02/22-rdf-syntax-ns#"
   xmlns:svg="http://www.w3.org/2000/svg"
   xmlns="http://www.w3.org/2000/svg"
   xmlns:sodipodi="http://sodipodi.sourceforge.net/DTD/sodipodi-0.dtd"
   xmlns:inkscape="http://www.inkscape.org/namespaces/inkscape"
   id="svg2"
   version="1.1"
   inkscape:version="0.91 r13725"
   sodipodi:docname="BlobC.svg"
   width="102"
   height="102">
  <metadata
     id="metadata774">
    <rdf:RDF>
      <cc:Work
         rdf:about="">
        <dc:format>image/svg+xml</dc:format>
        <dc:type
           rdf:resource="http://purl.org/dc/dcmitype/StillImage" />
        <dc:title></dc:title>
      </cc:Work>
    </rdf:RDF>
  </metadata>
  <sodipodi:namedview
     pagecolor="#ffffff"
     bordercolor="#666666"
     borderopacity="1"
     objecttolerance="10"
     gridtolerance="10"
     guidetolerance="10"
     inkscape:pageopacity="0"
     inkscape:pageshadow="2"
     inkscape:window-width="1280"
     inkscape:window-height="725"
     id="namedview772"
     showgrid="false"
     inkscape:zoom="2.36"
     inkscape:cx="-9.760942"
     inkscape:cy="23.147761"
     inkscape:window-x="199"
     inkscape:window-y="58"
     inkscape:window-maximized="0"
     inkscape:current-layer="g6"
     fit-margin-top="0"
     fit-margin-left="0"
     fit-margin-right="0"
     fit-margin-bottom="0" />
  <defs
     id="defs4" />
  <g
     id="g6"
     transform="translate(-452.25,-19.5)">
    <path
       d="m 453.25,40.2 q 0,-19.7 19.7,-19.7 l 60.6,0 q 6.9,0 11.3,2.4 8.4,4.5 8.4,17.3 l 0,61.4 q -0.2,12.2 -8.4,16.6 -4.4,2.3 -11.3,2.3 l -60.6,0 q -19.3,0 -19.7,-18.9 l 0,-61.4"
       id="path180"
       style="fill:#1f79be;fill-opacity:1;stroke:#000000;stroke-width:2;stroke-opacity:1"
       inkscape:connector-curvature="0" />
    <path
       d="m 522.45,57.3 q 3,0 5.1,2.1 2.2,2.2 2.2,5.2 0,2.9 -2.2,5.1 -2.1,2.1 -5.1,2.1 -3,0 -5.1,-2.1 -2.2,-2.2 -2.2,-5.1 0,-3 2.2,-5.2 2.1,-2.1 5.1,-2.1 m -32.7,7.3 q 0,2.9 -2.2,5.1 -2.1,2.1 -5.1,2.1 -3,0 -5.1,-2.1 -2.2,-2.2 -2.2,-5.1 0,-3 2.2,-5.2 2.1,-2.1 5.1,-2.1 3,0 5.1,2.1 2.2,2.2 2.2,5.2"
       id="path182"
       style="fill:#ffffff;fill-opacity:1;stroke:#000000;stroke-width:2;stroke-opacity:1"
       inkscape:connector-curvature="0" />
    <path
       d="m 520.05,85.3 q -1.2,1.2 -2.8,1.2 l -28,0 q -1.6,0 -2.8,-1.2 -1.2,-1.2 -1.2,-2.8 0,-1.6 1.2,-2.8 1.2,-1.2 2.8,-1.2 l 28,0 q 1.6,0 2.8,1.2 1.2,1.2 1.2,2.8 0,1.6 -1.2,2.8"
       id="path184"
       style="fill:#2c6088;fill-opacity:1;stroke:#000000;stroke-width:2;stroke-opacity:1"
       inkscape:connector-curvature="0" />
  </g>
</svg>
